# xmcd CD database file
#
# Track frame offsets:
#	150
#	20367
#	40270
#	60467
#
# Disc length: 1069 seconds
#
# Revision: 0
# Processed by: cddbd v1.5.1PL0 Copyright (c) Steve Scherf et al.
# Submitted via: CDex 1.51
#
DISCID=28042b04
DTITLE=Manish - だけど 止められない - いつでも いまでも いつかは
DYEAR=1993
DGENRE=JPop
TTITLE0=だけど 止められない
TTITLE1=いつでも いまでも いつかは
TTITLE2=だけど 止められない (オリジナル・カラオケ)
TTITLE3=いつでも いまでも いつかは (オリジナル・カラオケ)
EXTD=YEAR: 1993
EXTT0=
EXTT1=
EXTT2=
EXTT3=
PLAYORDER=
